<svg width="738" height="391" viewBox="0 0 738 391" fill="none" xmlns="http://www.w3.org/2000/svg">
<path d="M439.755 93.3229C448.775 93.3229 456.087 86.0111 456.087 76.9915C456.087 67.9719 448.775 60.6602 439.755 60.6602V93.3229ZM429.173 76.9915V93.3229V76.9915ZM429.173 137.651V153.982V137.651ZM550.725 153.982C559.744 153.982 567.056 146.67 567.056 137.651C567.056 128.631 559.744 121.319 550.725 121.319V153.982ZM439.755 60.6602H429.173V93.3229H439.755V60.6602ZM429.173 60.6602C415.254 60.6602 404.736 67.8469 398.325 77.3144C392.245 86.2943 389.744 97.2694 389.744 107.321C389.744 117.372 392.245 128.348 398.325 137.328C404.736 146.795 415.254 153.982 429.173 153.982V121.319C427.694 121.319 426.662 120.924 425.374 119.018C423.755 116.624 422.407 112.434 422.407 107.321C422.407 102.208 423.755 98.0184 425.374 95.6246C426.662 93.7185 427.694 93.3229 429.173 93.3229V60.6602ZM429.173 153.982H550.725V121.319H429.173V153.982Z" fill="#70EBBE"/>
<path d="M663.947 93.3229C654.927 93.3229 647.615 86.0111 647.615 76.9915C647.615 67.9719 654.927 60.6602 663.947 60.6602V93.3229ZM678.243 76.9915V93.3229V76.9915ZM634.718 153.982C625.698 153.982 618.387 146.67 618.387 137.651C618.387 128.631 625.698 121.319 634.718 121.319V153.982ZM663.947 60.6602H678.243V93.3229H663.947V60.6602ZM678.239 60.6602C692.167 60.6602 702.353 68.2869 708.354 77.676C714.056 86.6018 716.375 97.4402 716.375 107.321C716.375 117.202 714.056 128.04 708.354 136.966C702.353 146.355 692.167 153.982 678.243 153.982V121.319C678.85 121.319 679.564 121.364 680.833 119.379C682.396 116.931 683.712 112.605 683.712 107.321C683.712 102.037 682.396 97.7108 680.833 95.263C679.564 93.2785 678.85 93.3229 678.243 93.3229L678.239 60.6602ZM678.243 153.982H634.718V121.319H678.243V153.982Z" fill="#70EBBE"/>
<path d="M576.383 74.6576C576.383 83.6772 583.695 90.9889 592.715 90.9889C601.734 90.9889 609.046 83.6772 609.046 74.6576H576.383ZM592.715 63.5695H576.383H592.715ZM497.06 76.9906C497.06 86.0102 504.371 93.322 513.391 93.322C522.41 93.322 529.722 86.0102 529.722 76.9906H497.06ZM609.046 74.6576V63.5695H576.383V74.6576H609.046ZM609.046 63.5695C609.046 44.2929 602.905 28.2663 592.192 16.9268C581.567 5.67865 567.308 0 553.053 0C538.798 0 524.538 5.67865 513.914 16.9268C503.2 28.2663 497.06 44.2929 497.06 63.5695H529.722C529.722 51.3542 533.497 43.7615 537.659 39.3553C541.905 34.8572 547.477 32.6627 553.053 32.6627C558.629 32.6627 564.2 34.8572 568.446 39.3553C572.608 43.7615 576.383 51.3542 576.383 63.5695H609.046ZM497.06 63.5695V76.9906H529.722V63.5695H497.06Z" fill="#70EBBE"/>
<path d="M497.063 75.3742C497.063 84.3938 504.375 91.7055 513.394 91.7055C522.414 91.7055 529.725 84.3938 529.725 75.3742H497.063ZM513.394 67.698H497.063H513.394ZM427.071 76.9896C427.071 86.0092 434.383 93.3209 443.403 93.3209C452.422 93.3209 459.734 86.0092 459.734 76.9896H427.071ZM529.725 75.3742V67.698H497.063V75.3742H529.725ZM529.725 67.698C529.725 51.9644 523.207 39.176 512.895 30.6081C502.956 22.3542 490.339 18.6633 478.398 18.6633C466.458 18.6633 453.841 22.3542 443.902 30.6081C433.59 39.176 427.071 51.9644 427.071 67.698H459.734C459.734 61.6297 461.964 58.0662 464.773 55.7332C467.96 53.0861 472.841 51.326 478.398 51.326C483.956 51.326 488.836 53.0861 492.023 55.7332C494.832 58.0662 497.063 61.6297 497.063 67.698H529.725ZM427.071 67.698V76.9896H459.734V67.698H427.071Z" fill="#70EBBE"/>
<path d="M646.378 75.3742C646.378 84.3937 653.69 91.7055 662.71 91.7055C671.729 91.7055 679.041 84.3937 679.041 75.3742H646.378ZM662.71 67.698H646.378H662.71ZM576.387 76.9896C576.387 86.0091 583.698 93.3209 592.718 93.3209C601.738 93.3209 609.049 86.0091 609.049 76.9896H576.387ZM679.041 75.3742V67.698H646.378V75.3742H679.041ZM679.041 67.698C679.041 51.9644 672.522 39.176 662.21 30.6081C652.272 22.3542 639.654 18.6633 627.714 18.6633C615.773 18.6633 603.156 22.3542 593.217 30.6081C582.905 39.176 576.387 51.9644 576.387 67.698H609.049C609.049 61.6297 611.28 58.0662 614.089 55.7332C617.276 53.0861 622.156 51.326 627.714 51.326C633.271 51.326 638.152 53.0861 641.339 55.7332C644.148 58.0662 646.378 61.6297 646.378 67.698H679.041ZM576.387 67.698V76.9896H609.049V67.698H576.387Z" fill="#70EBBE"/>
<path d="M629.234 160.983C642.119 160.983 652.564 150.537 652.564 137.652C652.564 124.767 642.119 114.322 629.234 114.322C616.349 114.322 605.903 124.767 605.903 137.652C605.903 150.537 616.349 160.983 629.234 160.983Z" fill="#6A67FF"/>
<path d="M35.9439 191.727L37.1328 208.245C47.352 195.471 61.0512 189.084 78.2304 189.084C93.3831 189.084 104.659 193.533 112.06 202.431C119.46 211.329 123.248 224.631 123.424 242.339V334.708H85.2338V243.263C85.2338 235.159 83.4718 229.3 79.948 225.688C76.4242 221.988 70.5659 220.138 62.3727 220.138C51.6248 220.138 43.5641 224.719 38.1902 233.881V334.708H0V191.727H35.9439ZM146.55 261.896C146.55 247.713 149.28 235.071 154.742 223.971C160.204 212.87 168.045 204.281 178.264 198.202C188.572 192.123 200.509 189.084 214.076 189.084C233.369 189.084 249.094 194.987 261.252 206.791C273.496 218.597 280.322 234.63 281.736 254.892L281.998 264.671C281.998 286.607 275.876 304.226 263.632 317.53C251.385 330.742 234.954 337.349 214.34 337.349C193.725 337.349 177.251 330.742 164.918 317.53C152.672 304.315 146.55 286.343 146.55 263.614V261.896ZM184.739 264.671C184.739 278.238 187.294 288.634 192.404 295.857C197.514 302.993 204.825 306.561 214.34 306.561C223.59 306.561 230.814 303.038 236.012 295.989C241.209 288.854 243.808 277.489 243.808 261.896C243.808 248.594 241.209 238.286 236.012 230.974C230.814 223.662 223.502 220.006 214.076 220.006C204.737 220.006 197.514 223.662 192.404 230.974C187.294 238.198 184.739 249.431 184.739 264.671ZM299.971 262.16C299.971 240.224 305.169 222.561 315.565 209.17C326.046 195.779 340.142 189.084 357.85 189.084C373.532 189.084 385.734 194.458 394.455 205.206L396.042 191.727H430.664V329.949C430.664 342.459 427.799 353.34 422.074 362.593C416.433 371.841 408.463 378.887 398.155 383.735C387.848 388.578 375.777 391 361.946 391C351.462 391 341.243 388.886 331.29 384.659C321.333 380.52 313.802 375.145 308.692 368.537L325.607 345.282C335.121 355.939 346.66 361.268 360.229 361.268C370.359 361.268 378.245 358.538 383.882 353.079C389.518 347.703 392.341 340.037 392.341 330.084V322.419C383.532 332.375 371.946 337.349 357.584 337.349C340.408 337.349 326.489 330.658 315.827 317.265C305.258 303.786 299.971 285.947 299.971 263.746V262.16ZM338.159 264.936C338.159 277.886 340.758 288.061 345.956 295.461C351.154 302.773 358.288 306.429 367.364 306.429C378.992 306.429 387.316 302.068 392.341 293.347V233.221C387.232 224.499 378.992 220.138 367.63 220.138C358.466 220.138 351.242 223.882 345.956 231.37C340.758 238.859 338.159 250.047 338.159 264.936ZM454.583 262.16C454.583 240.224 459.776 222.561 470.172 209.17C480.657 195.779 494.753 189.084 512.461 189.084C528.139 189.084 540.341 194.458 549.066 205.206L550.648 191.727H585.271V329.949C585.271 342.459 582.41 353.34 576.68 362.593C571.044 371.841 563.069 378.887 552.767 383.735C542.459 388.578 530.388 391 516.558 391C506.073 391 495.854 388.886 485.897 384.659C475.944 380.52 468.413 375.145 463.303 368.537L480.218 345.282C489.732 355.939 501.272 361.268 514.841 361.268C524.971 361.268 532.856 358.538 538.493 353.079C544.13 347.703 546.948 340.037 546.948 330.084V322.419C538.138 332.375 526.557 337.349 512.195 337.349C495.019 337.349 481.095 330.658 470.438 317.265C459.865 303.786 454.583 285.947 454.583 263.746V262.16ZM492.77 264.936C492.77 277.886 495.369 288.061 500.567 295.461C505.765 302.773 512.899 306.429 521.975 306.429C533.603 306.429 541.927 302.068 546.948 293.347V233.221C541.839 224.499 533.603 220.138 522.241 220.138C513.077 220.138 505.854 223.882 500.567 231.37C495.369 238.859 492.77 250.047 492.77 264.936ZM649.891 191.727L651.081 208.245C661.3 195.471 675 189.084 692.176 189.084C707.331 189.084 718.604 193.533 726.005 202.431C733.405 211.329 737.194 224.631 737.372 242.339V334.708H699.179V243.263C699.179 235.159 697.42 229.3 693.897 225.688C690.37 221.988 684.514 220.138 676.32 220.138C665.574 220.138 657.511 224.719 652.136 233.881V334.708H613.948V191.727H649.891Z" fill="#2D2E4E"/>
</svg>
