<svg width="81" height="40" viewBox="0 0 81 40" fill="none" xmlns="http://www.w3.org/2000/svg">
<path d="M13.1421 22.7371C15.3396 22.7371 17.1211 20.9556 17.1211 18.7581C17.1211 16.5605 15.3396 14.7791 13.1421 14.7791V22.7371ZM10.5637 18.7581V22.7371V18.7581ZM10.5637 33.5372V37.5162V33.5372ZM40.1787 37.5162C42.3762 37.5162 44.1577 35.7347 44.1577 33.5372C44.1577 31.3396 42.3762 29.5582 40.1787 29.5582V37.5162ZM13.1421 14.7791H10.5637V22.7371H13.1421V14.7791ZM10.5637 14.7791C7.17245 14.7791 4.60999 16.5301 3.04795 18.8367C1.56663 21.0246 0.957275 23.6986 0.957275 26.1476C0.957275 28.5965 1.56663 31.2706 3.04795 33.4585C4.60999 35.7652 7.17245 37.5162 10.5637 37.5162V29.5582C10.2033 29.5582 9.95206 29.4618 9.63829 28.9974C9.2438 28.4142 8.91525 27.3934 8.91525 26.1476C8.91525 24.9017 9.2438 23.8811 9.63829 23.2979C9.95206 22.8335 10.2033 22.7371 10.5637 22.7371V14.7791ZM10.5637 37.5162H40.1787V29.5582H10.5637V37.5162Z" fill="#70EBBE"/>
<path d="M67.7633 22.7371C65.5658 22.7371 63.7843 20.9556 63.7843 18.7581C63.7843 16.5605 65.5658 14.7791 67.7633 14.7791V22.7371ZM71.2466 18.7581V22.7371V18.7581ZM60.6421 37.5162C58.4445 37.5162 56.6631 35.7347 56.6631 33.5372C56.6631 31.3396 58.4445 29.5582 60.6421 29.5582V37.5162ZM67.7633 14.7791H71.2466V22.7371H67.7633V14.7791ZM71.2455 14.7791C74.639 14.7791 77.1208 16.6373 78.5828 18.9248C79.972 21.0995 80.537 23.7402 80.537 26.1476C80.537 28.555 79.972 31.1957 78.5828 33.3704C77.1208 35.658 74.639 37.5162 71.2466 37.5162V29.5582C71.3944 29.5582 71.5684 29.569 71.8776 29.0855C72.2584 28.4891 72.579 27.435 72.579 26.1476C72.579 24.8602 72.2584 23.8062 71.8776 23.2098C71.5684 22.7263 71.3944 22.7371 71.2466 22.7371L71.2455 14.7791ZM71.2466 37.5162H60.6421V29.5582H71.2466V37.5162Z" fill="#70EBBE"/>
<path d="M46.4314 18.1897C46.4314 20.3872 48.2128 22.1686 50.4104 22.1686C52.6079 22.1686 54.3893 20.3872 54.3893 18.1897H46.4314ZM50.4104 15.4881H46.4314H50.4104ZM27.1049 18.7581C27.1049 20.9556 28.8863 22.7371 31.0838 22.7371C33.2814 22.7371 35.0628 20.9556 35.0628 18.7581H27.1049ZM54.3893 18.1897V15.4881H46.4314V18.1897H54.3893ZM54.3893 15.4881C54.3893 10.7916 52.8932 6.88683 50.283 4.12405C47.6944 1.38355 44.2202 0 40.7471 0C37.274 0 33.7998 1.38355 31.2112 4.12405C28.601 6.88683 27.1049 10.7916 27.1049 15.4881H35.0628C35.0628 12.512 35.9826 10.6621 36.9966 9.58856C38.0312 8.49264 39.3886 7.95797 40.7471 7.95797C42.1056 7.95797 43.463 8.49264 44.4976 9.58856C45.5116 10.6621 46.4314 12.512 46.4314 15.4881H54.3893ZM27.1049 15.4881V18.7581H35.0628V15.4881H27.1049Z" fill="#70EBBE"/>
<path d="M27.1049 18.3645C27.1049 20.5621 28.8864 22.3435 31.0839 22.3435C33.2814 22.3435 35.0629 20.5621 35.0629 18.3645H27.1049ZM31.0839 16.4943H27.1049H31.0839ZM10.0521 18.7581C10.0521 20.9556 11.8336 22.7371 14.0311 22.7371C16.2286 22.7371 18.0101 20.9556 18.0101 18.7581H10.0521ZM35.0629 18.3645V16.4943H27.1049V18.3645H35.0629ZM35.0629 16.4943C35.0629 12.6609 33.4747 9.54514 30.9623 7.45765C28.5408 5.44667 25.4667 4.54742 22.5575 4.54742C19.6483 4.54742 16.5742 5.44667 14.1527 7.45765C11.6403 9.54514 10.0521 12.6609 10.0521 16.4943H18.0101C18.0101 15.0158 18.5535 14.1476 19.2379 13.5792C20.0144 12.9342 21.2035 12.5054 22.5575 12.5054C23.9115 12.5054 25.1006 12.9342 25.8771 13.5792C26.5615 14.1476 27.1049 15.0158 27.1049 16.4943H35.0629ZM10.0521 16.4943V18.7581H18.0101V16.4943H10.0521Z" fill="#70EBBE"/>
<path d="M63.4841 18.3645C63.4841 20.5621 65.2656 22.3435 67.4631 22.3435C69.6607 22.3435 71.4421 20.5621 71.4421 18.3645H63.4841ZM67.4631 16.4943H63.4841H67.4631ZM46.4313 18.7581C46.4313 20.9556 48.2128 22.7371 50.4103 22.7371C52.6079 22.7371 54.3893 20.9556 54.3893 18.7581H46.4313ZM71.4421 18.3645V16.4943H63.4841V18.3645H71.4421ZM71.4421 16.4943C71.4421 12.6609 69.8539 9.54514 67.3415 7.45765C64.92 5.44667 61.8459 4.54742 58.9367 4.54742C56.0275 4.54742 52.9535 5.44667 50.532 7.45765C48.0195 9.54514 46.4313 12.6609 46.4313 16.4943H54.3893C54.3893 15.0158 54.9327 14.1476 55.6171 13.5792C56.3936 12.9342 57.5827 12.5054 58.9367 12.5054C60.2907 12.5054 61.4799 12.9342 62.2563 13.5792C62.9407 14.1476 63.4841 15.0158 63.4841 16.4943H71.4421ZM46.4313 16.4943V18.7581H54.3893V16.4943H46.4313Z" fill="#70EBBE"/>
<path d="M59.3069 39.2219C62.4462 39.2219 64.9912 36.6769 64.9912 33.5376C64.9912 30.3983 62.4462 27.8533 59.3069 27.8533C56.1676 27.8533 53.6226 30.3983 53.6226 33.5376C53.6226 36.6769 56.1676 39.2219 59.3069 39.2219Z" fill="#6A67FF"/>
</svg>
